<svg width="218" height="221" viewBox="0 0 218 221" fill="none" xmlns="http://www.w3.org/2000/svg">
<g clip-path="url(#clip0_318_7)">
<path d="M139.884 168.705H147.997V170.609H139.884V168.705ZM4.94068 157.157L4.21551 176.267V176.599C4.21551 178.217 4.68551 178.551 7.2297 178.733V179.619C5.37785 179.474 4.64893 179.437 3.63388 179.437C2.61601 179.437 1.88991 179.474 0.00146484 179.619V178.733C2.54284 178.551 2.90777 178.255 2.98 176.267L3.7427 158.19V157.972C3.7427 156.276 3.2333 155.908 0.729448 155.762V154.84C2.1432 154.951 2.68825 154.988 3.70611 154.988C4.85913 154.998 6.01172 154.938 7.15746 154.806L13.9101 173.433L20.7724 154.806C22.4095 154.951 23.1712 154.988 24.2613 154.988C25.1657 154.988 25.7492 154.951 27.1282 154.84V155.762C24.66 155.908 24.1122 156.276 24.1122 157.932V158.19L24.5127 176.267C24.5521 178.255 24.8767 178.548 27.4922 178.733V179.619C25.2051 179.398 24.3317 179.322 22.9526 179.322C21.5708 179.322 20.6993 179.394 18.4121 179.619V178.733C20.8803 178.588 21.4254 178.181 21.4254 176.454V176.272L21.1017 157.199L15.1071 173.618L14.6728 174.834L14.1643 176.194L13.6896 177.598L13.2909 178.811H12.7459L12.3481 177.634L11.8378 176.194L11.3302 174.76L10.894 173.472L4.94068 157.157ZM32.2091 169.049C32.5731 164.816 33.9512 162.647 36.2759 162.647C38.6371 162.647 39.8351 164.707 40.0518 169.049H32.2091ZM36.9316 178.694C33.6266 178.694 32.1716 176.117 32.1387 170.374H42.9609C42.8868 164.705 40.5987 161.685 36.3124 161.685C31.9577 161.685 29.2324 165.257 29.2324 170.927C29.2324 176.596 31.9586 179.909 36.6408 179.909C40.2 179.909 42.5256 177.661 42.9947 173.871H41.5406C41.1053 177 39.5077 178.694 36.9316 178.694ZM45.1214 163.047V162.386C47.19 162.202 48.4264 161.982 49.9143 161.539C50.0963 162.902 50.1685 163.489 50.2407 164.595V165.001C51.0419 162.902 52.6001 161.686 54.4904 161.686C56.3048 161.686 57.65 162.902 57.65 164.671C57.65 165.739 57.0328 166.437 56.1247 166.437C55.2897 166.437 54.6368 165.921 54.6368 165.187C54.6368 165.114 54.6743 164.969 54.7071 164.816L54.7794 164.45V164.115C54.7794 163.599 54.3432 163.232 53.6893 163.232C51.8037 163.232 50.6057 165.551 50.6057 169.196V176.889C50.6057 178.476 50.9669 178.769 53.1836 178.879V179.616C51.1836 179.434 50.4218 179.393 49.1507 179.393C47.8438 179.393 47.0821 179.434 45.0858 179.616V178.879C47.2988 178.769 47.6984 178.476 47.6984 176.889V164.855C47.6637 163.27 47.4798 163.089 45.5942 163.05L45.1214 163.047ZM71.5427 161.357V167.433H70.7415C70.0877 164.227 68.7452 162.682 66.5312 162.682C63.8051 162.682 62.2093 165.666 62.2093 170.93C62.2093 176.083 63.6249 178.697 66.4205 178.697C68.672 178.697 70.0154 177.078 70.4517 173.84H71.9395C71.4667 177.78 69.3972 179.914 66.1307 179.914C61.9176 179.914 59.0507 176.305 59.0507 170.933C59.0507 165.444 61.9541 161.691 66.2395 161.691C67.8015 161.691 68.7818 162.097 69.946 163.238L70.9235 161.36H71.5436L71.5427 161.357ZM77.5054 169.049C77.8685 164.816 79.2466 162.647 81.5722 162.647C83.9325 162.647 85.1305 164.707 85.3462 169.049H77.5054ZM82.226 178.694C78.921 178.694 77.4698 176.117 77.4332 170.374H88.2535C88.1812 164.705 85.8913 161.685 81.6097 161.685C77.2493 161.685 74.525 165.257 74.525 170.927C74.525 176.596 77.2484 179.909 81.9362 179.909C85.4945 179.909 87.8191 177.661 88.2891 173.871H86.8369C86.4016 177 84.804 178.694 82.226 178.694ZM98.3101 178.918C95.6956 178.918 94.3166 176.154 94.3166 170.893C94.3166 165.558 95.5868 162.942 98.2023 162.942C100.891 162.942 102.271 165.739 102.271 171.154C102.27 176.266 100.926 178.918 98.3101 178.918ZM105.137 175.786V154.532C103.322 155.025 101.689 155.317 99.6564 155.538V156.165C101.944 156.165 102.234 156.423 102.234 158.336V164.778C100.891 162.57 99.8374 161.906 97.8758 161.906C93.991 161.906 91.2658 165.623 91.2658 170.924C91.2658 176.226 94.0239 179.941 97.9846 179.941C100.054 179.941 101.471 178.984 102.487 176.924C102.631 178.323 102.631 178.47 102.996 179.867C104.483 179.388 105.102 179.241 107.245 178.984L107.789 178.912V178.286C105.355 178.213 105.137 178.031 105.137 175.786ZM112.144 169.049C112.507 164.816 113.886 162.647 116.211 162.647C118.572 162.647 119.768 164.707 119.985 169.049H112.144ZM116.865 178.694C113.558 178.694 112.109 176.117 112.071 170.374H122.892C122.819 164.705 120.531 161.685 116.248 161.685C111.888 161.685 109.165 165.257 109.165 170.927C109.165 176.596 111.888 179.909 116.574 179.909C120.133 179.909 122.456 177.661 122.926 173.871H121.473C121.041 177 119.44 178.694 116.865 178.694ZM125.975 179.947V173.796L126.775 173.761C127.427 177.113 128.953 178.733 131.496 178.733C133.636 178.733 135.236 177.296 135.236 175.423C135.236 174.171 134.547 173.326 132.765 172.514L131.386 171.886L129.716 171.114C127.062 169.863 126.228 168.831 126.228 166.695C126.228 163.786 128.477 161.801 131.675 161.801C133.092 161.801 134.147 162.132 135.38 162.975L135.995 161.466H136.649V167.173H135.813C135.483 164.226 134.287 162.83 132.001 162.83C130.077 162.83 128.584 164.156 128.584 165.886C128.584 167.357 129.129 167.838 132.434 169.31L133.961 169.974C136.718 171.185 137.702 172.366 137.702 174.539C137.702 177.632 135.267 179.837 131.857 179.837C130.186 179.837 128.878 179.395 127.499 178.292L126.624 179.947H125.975ZM157.898 167.245C159.821 167.245 160.91 167.578 161.747 168.422C162.583 169.272 163.057 170.854 163.057 172.618C163.057 176.3 161.238 178.363 158.008 178.363H156.701C154.775 178.363 154.449 178.067 154.449 176.447V167.242L157.898 167.245ZM154.446 156.089H157.534C160.585 156.089 161.927 157.601 161.927 161.023C161.927 162.716 161.528 163.933 160.73 164.887C159.931 165.811 158.951 166.102 156.919 166.102H154.449V156.088H154.446V156.089ZM165.158 160.949C165.158 159.035 164.361 157.344 162.98 156.273C161.747 155.353 160.332 154.95 157.968 154.95H148.418V155.87C151.035 156.018 151.396 156.312 151.396 158.299V176.153C151.396 178.142 151.103 178.397 148.418 178.621V179.506H157.605C160.291 179.506 161.746 179.173 163.272 178.216C165.087 177.039 166.285 174.792 166.285 172.477C166.285 170.485 165.449 168.683 164.033 167.582C163.272 166.994 162.472 166.658 161.163 166.403C163.781 165.405 165.158 163.526 165.158 160.949ZM172.213 169.049C172.578 164.816 173.957 162.647 176.282 162.647C178.641 162.647 179.841 164.707 180.056 169.049H172.213ZM176.936 178.694C173.631 178.694 172.176 176.117 172.141 170.374H182.964C182.891 164.705 180.602 161.685 176.317 161.685C171.959 161.685 169.235 165.257 169.235 170.927C169.235 176.596 171.959 179.909 176.642 179.909C180.201 179.909 182.525 177.661 182.997 173.871H181.544C181.112 177 179.514 178.694 176.936 178.694ZM184.885 163.193V162.57C186.992 162.274 188.226 161.982 189.677 161.465C189.861 162.316 189.97 163.269 190.041 164.668C191.349 162.679 192.836 161.798 194.944 161.798C197.124 161.798 199.01 162.935 199.739 164.741C200.104 165.626 200.285 166.655 200.285 168.052V176.888C200.285 178.473 200.648 178.767 202.861 178.876V179.613C200.937 179.428 200.212 179.392 198.904 179.392C197.558 179.392 196.834 179.428 194.943 179.613V178.876C196.904 178.806 197.377 178.436 197.377 176.963V167.943C197.377 164.741 196.433 163.45 194.11 163.45C191.638 163.45 190.332 165.036 190.332 168.052V176.963C190.332 178.436 190.807 178.806 192.697 178.876V179.613C190.807 179.428 190.082 179.392 188.773 179.392C187.502 179.392 186.738 179.428 184.85 179.613V178.876C187.063 178.767 187.428 178.473 187.428 176.888V164.963C187.391 163.45 187.174 163.232 185.359 163.232C185.247 163.232 185.068 163.193 184.885 163.193ZM204.272 179.506L214.113 163.086H209.646C207.287 163.086 206.703 163.599 205.397 166.914H204.674L205.509 162.128H218.001L208.123 178.548H212.37C214.842 178.548 215.857 177.556 216.947 174.204H217.71L216.767 179.506H204.272Z" fill="#091923"/>
<path d="M153.427 120.575C158.265 112.419 160.815 103.079 160.802 93.5616C160.802 64.558 137.608 41.0466 108.999 41.0466C80.3886 41.0466 57.1963 64.5589 57.1963 93.5616C57.183 103.079 59.7336 112.419 64.5728 120.575L64.3842 120.728L64.6094 120.639C73.6763 135.881 90.162 146.077 108.999 146.077C127.836 146.077 144.32 135.881 153.386 120.639L153.611 120.728L153.427 120.575ZM154.437 93.5616C154.446 101.604 152.367 109.507 148.407 116.476L116.361 90.3101L109.788 47.5212C134.516 47.9492 154.437 68.3907 154.437 93.5616ZM63.5653 93.5616C63.5653 68.3916 83.4844 47.9501 108.212 47.5212L101.64 90.3101L69.5936 116.476C65.6356 109.506 63.5565 101.604 63.5653 93.5616ZM109 139.622C92.8778 139.622 78.7263 131.101 70.6622 118.267L109 103.231L147.339 118.268C139.274 131.101 125.125 139.622 109 139.622Z" fill="#464545"/>
</g>
<defs>
<clipPath id="clip0_318_7">
<rect width="218" height="221" fill="white"/>
</clipPath>
</defs>
</svg>
